<svg xmlns="http://www.w3.org/2000/svg" viewBox="0 0 1600 1000" role="img" aria-labelledby="title desc">
  <title id="title">Imagen demostrativa de Café Patio</title>
  <desc id="desc">Composición editorial abstracta con una taza de café y hojas.</desc>
  <defs>
    <linearGradient id="bg" x1="0" y1="0" x2="1" y2="1">
      <stop offset="0" stop-color="#0b2c4f"/>
      <stop offset="1" stop-color="#147bd1"/>
    </linearGradient>
    <linearGradient id="cup" x1="0" y1="0" x2="1" y2="1">
      <stop offset="0" stop-color="#fff7e4"/>
      <stop offset="1" stop-color="#efcf9c"/>
    </linearGradient>
  </defs>
  <rect width="1600" height="1000" fill="url(#bg)"/>
  <circle cx="1320" cy="170" r="330" fill="#23bdf5" opacity=".2"/>
  <path d="M0 785C290 645 510 675 780 830s555 135 820 15v155H0z" fill="#ffb229" opacity=".9"/>
  <g transform="translate(520 240)">
    <ellipse cx="320" cy="520" rx="350" ry="75" fill="#03142f" opacity=".28"/>
    <path d="M80 120h500v300c0 130-105 235-235 235h-30C185 655 80 550 80 420z" fill="url(#cup)"/>
    <path d="M580 220h78c110 0 165 65 165 145s-60 145-178 145h-72" fill="none" stroke="#efcf9c" stroke-width="70" stroke-linecap="round"/>
    <ellipse cx="330" cy="122" rx="250" ry="82" fill="#fff7e4"/>
    <ellipse cx="330" cy="132" rx="205" ry="55" fill="#59361f"/>
    <path d="M305 83c-46-76 62-96 20-172M395 90c-35-65 54-84 23-146" fill="none" stroke="#fff" stroke-width="18" stroke-linecap="round" opacity=".55"/>
  </g>
  <g fill="#7ed957" opacity=".82">
    <ellipse cx="230" cy="240" rx="80" ry="150" transform="rotate(-35 230 240)"/>
    <ellipse cx="320" cy="145" rx="65" ry="120" transform="rotate(28 320 145)"/>
    <ellipse cx="1380" cy="650" rx="85" ry="165" transform="rotate(38 1380 650)"/>
  </g>
  <text x="90" y="905" fill="#fff" font-family="Arial, sans-serif" font-size="54" font-weight="700">Café Patio · imagen demo</text>
</svg>
